<?xml version="1.0" standalone="no"?>
<!DOCTYPE svg PUBLIC "-//W3C//DTD SVG 1.1//EN" "http://www.w3.org/Graphics/SVG/1.1/DTD/svg11.dtd" >
<svg xmlns="http://www.w3.org/2000/svg">
<metadata>Generated by IcoMoon</metadata>
<defs>
<font id="icomoon" horiz-adv-x="1024">
<font-face units-per-em="1024" ascent="960" descent="-64" />
<missing-glyph horiz-adv-x="1024" />
<glyph unicode="&#x20;" horiz-adv-x="512" d="" />
<glyph unicode="&#xe900;" glyph-name="查看" d="M1017.344 466.432c0 0-218.624 299.008-505.344 299.008-286.208 0-505.344-299.008-505.344-299.008-7.168-10.24-7.168-26.624 0-36.864 0 0 218.624-299.008 505.344-299.008 286.208 0 505.344 299.008 505.344 299.008 7.168 10.24 7.168 27.136 0 36.864zM512 199.168c-205.312 0-378.368 184.832-432.64 249.344 54.272 64.512 226.304 249.344 432.64 249.344 205.312 0 378.368-184.832 432.64-249.344-53.76-65.024-226.304-249.344-432.64-249.344zM512 594.944c-80.896 0-146.432-65.536-146.432-146.432s65.536-146.432 146.432-146.432c80.896 0 146.432 65.536 146.432 146.432 0.512 80.896-65.536 146.432-146.432 146.432zM512 370.176c-43.008 0-78.336 35.328-78.336 78.336s35.328 78.336 78.336 78.336 78.336-35.328 78.336-78.336c0-43.52-34.816-78.336-78.336-78.336z" />
<glyph unicode="&#xe901;" glyph-name="成功" d="M518.144 956.416c-282.112 0-512-229.376-512-511.488s229.888-511.488 512-511.488 512 229.376 512 511.488-229.376 511.488-512 511.488zM518.144 7.168c-241.664 0-438.784 196.608-438.784 437.76 0 241.664 196.608 437.76 438.784 437.76 241.664 0 438.272-196.608 438.272-437.76 0.512-241.152-196.608-437.76-438.272-437.76zM761.856 618.496c-14.336 14.336-37.376 13.824-51.712-0.512v0l-266.752-269.312-117.76 121.344c-14.848 13.824-37.888 12.8-51.712-2.048-12.8-13.824-12.8-34.816-0.512-48.64l143.872-147.968c2.56-2.048 5.12-3.584 7.68-5.12 1.536-1.024 2.56-2.048 4.096-2.56 8.704-3.584 18.432-3.584 27.648 0 1.536 0.512 2.56 1.536 4.096 2.56 2.56 1.536 5.632 3.072 7.68 5.12v0.512l292.864 295.424c14.848 13.824 14.848 36.864 0.512 51.2v0z" />
<glyph unicode="&#xe902;" glyph-name="店铺" d="M959.488 585.216c0 7.68-0.512 14.848-2.048 22.016-0.512 2.048-1.024 4.096-1.536 5.632l-72.192 172.032c-27.136 65.024-94.72 68.608-110.080 68.608v0h-531.456c-0.512 0-4.608 0-5.12 0-34.816 0-78.848-17.92-98.304-67.584-20.992-53.248-72.192-171.52-72.704-173.056-1.024-2.048-1.536-4.096-2.048-6.144-1.024-7.168-2.048-14.336-2.048-22.016 0-57.344 37.888-105.472 89.6-119.296v-346.112c0-39.936 31.744-72.704 71.168-72.704h576.512c38.912 0 71.168 32.768 71.168 72.704v324.608c0 8.192 0 15.36-0.512 21.504 51.712 14.336 89.6 62.464 89.6 119.808zM204.8 119.808v344.064c14.336 2.56 25.088 7.168 32.768 11.776 8.192 4.096 15.872 9.728 23.040 15.872 2.56 0.512 5.12 0.512 7.68 0 7.168-6.144 14.848-11.264 22.528-15.36 11.264-6.144 28.16-13.312 52.224-13.824 1.024 0 2.048 0 3.072 0s2.048 0 3.072 0c3.072 0 6.656 0.512 9.216 0.512v-360.96h-136.704c-8.704-0.512-16.896 8.192-16.896 17.92zM816.64 119.808c0-9.728-8.192-17.92-17.92-17.92h-386.56v380.416c4.096 3.072 8.192 6.144 12.288 9.216 2.56 0.512 5.12 0.512 7.68 0 7.168-6.144 14.848-11.264 23.040-15.872 11.264-6.144 28.16-13.312 51.712-13.824 1.024 0 2.048 0 3.072 0s2.048 0 3.072 0c23.552 0.512 40.96 7.168 51.712 13.824 8.192 4.096 15.872 9.728 23.040 15.872 2.56 0.512 5.12 0.512 7.68 0 7.168-6.144 14.848-11.264 22.528-15.36 11.264-6.144 28.16-13.312 52.224-13.824 1.024 0 2.048 0 3.072 0s2.048 0 3.072 0c23.552 0.512 40.96 7.168 52.224 13.824 8.192 4.096 15.872 9.728 23.040 15.872 2.56 0.512 5.12 0.512 7.68 0 7.168-6.144 14.848-11.264 22.528-15.36 7.68-4.608 18.432-9.216 32.768-11.776 0-5.632 0.512-11.776 0.512-19.456l1.536-325.632zM839.168 516.096c-11.264 0-22.016 3.072-31.232 8.192-0.512 0.512-0.512 0.512-0.512 0.512-4.608 5.12-10.24 9.216-15.872 12.288-4.096 4.096-7.68 9.216-10.752 14.848-4.608 8.704-13.312 13.824-23.040 13.824v0c-9.728 0-18.432-5.12-23.040-13.824-3.072-5.12-6.144-10.24-10.24-14.336-5.632-3.072-11.264-7.168-15.872-11.776 0 0-0.512-0.512-2.048-1.536-9.216-5.12-19.968-7.68-30.72-7.68-11.264 0-22.016 3.072-31.232 8.192-0.512 0.512-0.512 0.512-0.512 0.512-4.608 5.12-10.24 9.216-15.872 12.288-4.096 4.096-7.68 9.216-10.752 14.848-4.608 8.704-13.312 13.824-23.040 13.824s-18.432-5.12-23.040-13.824c-3.072-5.12-6.144-10.24-10.24-14.336-5.632-3.072-11.264-7.168-15.872-11.776 0 0-1.024-1.024-2.56-1.536-9.216-4.608-19.456-7.168-30.208-7.168-11.264 0-22.016 2.56-31.232 7.68-0.512 0.512-1.024 0.512-1.024 0.512-4.608 5.12-10.24 9.216-15.872 12.288-4.096 4.096-7.68 9.216-10.752 14.336-9.216 17.408-36.864 17.408-46.592 0-3.072-5.12-6.656-10.24-10.24-14.336-5.632-3.072-11.264-7.168-15.872-11.776 0 0-1.024-0.512-2.048-1.536-9.216-5.12-19.968-7.68-30.72-7.68-11.264 0-22.016 3.072-31.232 8.192-0.512 0.512-0.512 0.512-0.512 0.512-4.608 5.12-10.24 9.216-15.872 12.288-4.096 4.096-7.68 9.216-10.752 14.848-4.608 8.704-13.312 13.824-23.040 13.824v0c-9.728 0-18.432-5.12-23.040-13.824-3.072-5.12-6.144-10.24-10.24-14.336-5.632-3.072-11.264-7.168-15.36-11.776 0 0-0.512 0-0.512-0.512-10.24-5.632-22.016-8.704-34.816-8.704 0 0 0 0-0.512 0-36.352 1.536-64.512 31.744-64.512 68.608 0 3.072 0 6.144 0.512 9.216 8.704 19.968 52.736 121.856 72.192 172.032 11.776 29.696 37.888 32.256 52.224 33.28h535.040c7.68 0 45.568-1.536 59.904-35.84l70.656-168.96c0.512-3.072 0.512-6.144 0.512-9.216-2.048-39.936-32.256-70.656-69.632-70.656z" />
<glyph unicode="&#xe903;" glyph-name="订单" d="M513.536 227.328h-179.712c-13.824 0-24.576-11.264-24.576-24.576s11.264-24.576 24.576-24.576h179.712c13.824 0 24.576 11.264 24.576 24.576s-11.264 24.576-24.576 24.576zM694.272 362.496h-360.448c-13.824 0-24.576-11.264-24.576-24.576s11.264-24.576 24.576-24.576h360.448c13.824 0 24.576 11.264 24.576 24.576s-11.264 24.576-24.576 24.576zM694.272 497.664h-360.448c-13.824 0-24.576-11.264-24.576-24.576s11.264-24.576 24.576-24.576h360.448c13.824 0 24.576 11.264 24.576 24.576s-11.264 24.576-24.576 24.576zM824.832 807.424h-129.024v20.992c0 13.824-11.264 24.576-24.576 24.576s-24.576-11.264-24.576-24.576v-20.992h-266.24v20.992c0 13.824-11.264 24.576-24.576 24.576s-24.576-11.264-24.576-24.576v-20.992h-128.512c-33.792 0-51.2-17.408-51.2-51.2v-656.896c0-33.792 17.408-51.2 51.2-51.2h622.080c33.792 0 51.2 17.408 51.2 51.2v656.896c0 33.792-17.92 51.2-51.2 51.2zM826.88 130.048c0-24.064-8.704-32.768-32.768-32.768h-561.152c-24.064 0-32.768 8.704-32.768 32.768v595.456c0 24.064 8.704 32.768 32.768 32.768h98.816v-65.536c0-13.824 11.264-24.576 24.576-24.576s24.576 11.264 24.576 24.576v65.536h266.24v-65.536c0-13.824 11.264-24.576 24.576-24.576s24.576 11.264 24.576 24.576v65.536h97.28c24.064 0 32.768-8.704 32.768-32.768v-595.456h0.512z" />
<glyph unicode="&#xe904;" glyph-name="概况" d="M990.208 518.656l-438.272 361.984c-20.992 18.944-55.296 18.944-76.288 0l-437.76-360.96c-17.408-14.848-22.016-38.4-12.8-58.368 8.192-18.944 28.16-31.232 50.176-31.232h47.104c11.776 0 20.992-9.216 20.992-19.456v-358.4c-0.512-28.16 24.064-51.2 54.272-51.712h632.832c30.72 0 55.296 23.552 55.296 51.712v358.912c-0.512 5.12 1.536 10.24 5.632 13.824s9.216 5.632 15.36 5.632h44.032c22.016 0.512 41.472 12.288 49.664 31.232 10.24 18.944 5.632 41.472-10.24 56.832zM954.368 480.256l-0.512-0.512v-0.512c-0.512-0.512-1.024-1.024-2.048-1.024h-44.544c-0.512 0-0.512 0-1.024 0-19.456 0-37.888-7.168-51.712-19.968s-21.504-30.208-20.992-48.128v-358.4c0-1.536-1.536-3.072-3.072-3.072h-632.32c-1.536 0.512-3.072 1.536-3.072 3.584v359.424c0 37.376-32.768 67.584-73.216 68.096h-47.104c-1.024 0-1.536 1.024-2.048 2.048s-0.512 2.56 0.512 3.072l438.784 361.984c0.512 0 0.512 0 1.024 0l1.024-0.512 1.024 0.512c0.512 0 0.512 0 1.024 0l437.248-361.984c1.024-1.536 1.536-3.072 1.024-4.608zM616.96 514.048v0c-46.080-2.56-86.016-30.72-103.936-72.704-22.016 46.592-60.416 74.752-103.936 74.752-28.16 0-54.784-12.288-74.24-34.304-21.504-24.576-32.768-58.368-32.768-98.816-0.512-72.192 51.712-103.424 97.28-130.56 9.216-5.632 17.92-10.24 25.6-15.872 35.84-22.016 65.536-53.76 84.992-91.136l4.096-7.68 2.048 8.704c4.608 17.408 42.496 60.928 84.48 91.648 8.704 6.144 18.432 12.288 28.672 18.944 44.544 28.16 95.232 59.904 94.72 127.488-0.512 38.912-11.776 72.192-33.28 96.256-19.456 20.992-46.080 33.28-73.728 33.28zM601.6 300.032c-11.264-7.168-21.504-13.312-31.232-20.48-20.48-14.848-39.424-31.744-56.832-49.664-17.92 18.944-38.4 35.328-59.904 49.664-6.144 4.096-12.8 8.192-19.456 12.288l-5.632 3.584c-46.592 28.16-75.264 47.616-74.752 86.528 0 55.808 28.672 81.408 54.784 81.408 28.16-3.072 51.2-22.528 59.392-50.176 7.68-18.432 26.112-29.696 46.080-29.696 19.456 0 37.376 11.776 45.056 30.208 8.192 26.624 31.744 45.568 59.392 48.128 27.136 0 54.272-24.576 54.784-78.848-1.536-36.864-28.16-55.296-71.68-82.944z" />
<glyph unicode="&#xe905;" glyph-name="公众号认证" d="M493.568 231.936l38.4-38.912 38.912 38.912-38.912 108.032zM532.48 893.44c-251.904 0-455.68-203.776-455.68-455.68s203.776-455.68 455.68-455.68 455.68 203.776 455.68 455.68c0 251.392-203.776 455.68-455.68 455.68zM805.888 171.008h-546.816c-1.024 6.144-1.024 22.528 0 39.936 3.584 30.72 16.384 53.248 34.816 67.072 13.824 10.24 31.232 15.36 46.080 18.944 7.168 1.536 14.848 4.096 20.992 5.12 37.376 8.704 75.776 17.408 104.448 54.784 2.56 2.048 17.408 24.576-22.528 73.216-17.408 21.504-28.672 49.664-33.792 86.016-5.12 37.376-1.024 72.192 2.56 94.72 5.12 26.112 19.968 49.664 42.496 67.072s49.664 26.112 77.312 26.112 54.784-8.704 77.312-26.112c22.528-17.408 37.376-40.96 42.496-68.608 3.584-22.528 7.68-57.344 2.56-94.72-5.12-34.816-16.384-63.488-33.792-86.016-39.936-48.128-23.552-70.656-22.528-73.216 28.672-38.4 67.072-47.104 104.448-54.784 7.68-1.536 14.848-4.096 22.528-5.12 13.824-4.096 31.232-9.216 45.056-18.944 41.472-28.672 37.376-90.624 36.352-105.472z" />
<glyph unicode="&#xe906;" glyph-name="勾" d="M727.507 596.044c-10.861 1.046-37.351-18.677-37.351-18.677l-253.256-189.94-82.898 59.213c0 0-34.587 29.41-56.028 18.677-22.675-11.353 0-37.351 0-37.351l136.416-130.709 293.117 280.11c0 0 16.886 17.047 0 18.677z" />
<glyph unicode="&#xe907;" glyph-name="京东认证" d="M512 960c-282.624 0-512-229.376-512-512s229.376-512 512-512 512 229.376 512 512-229.376 512-512 512zM387.584 389.632c0-99.84-83.456-180.224-185.856-180.224h-30.72v59.904h31.232c68.608 0 123.904 53.76 123.904 120.32v330.752h61.952v-330.752zM620.032 208.896v0h-154.624v511.488h155.136c128.512 0 232.448-114.688 232.448-255.488-0.512-141.312-104.448-256-232.96-256zM620.032 659.968h-92.672v-390.656h93.184c94.208 0 170.496 87.552 170.496 195.584s-76.8 195.072-171.008 195.072z" />
<glyph unicode="&#xe908;" glyph-name="客户" d="M960 28.672h-896l5.632 30.208c2.56 13.824 26.624 134.144 84.992 179.2 55.296 42.496 184.832 89.6 190.464 91.648l17.92 6.656 72.192-99.328-5.632 11.776 69.12 69.12c-55.808 7.168-108.032 43.008-148.992 102.4-36.864 53.248-60.928 121.344-60.928 173.056 0 44.032 0 111.104 28.672 166.4 35.328 68.096 103.424 102.912 202.24 102.912 99.328 0 167.424-34.816 202.24-102.912 28.672-55.808 28.672-122.368 28.672-166.4 0-51.712-24.064-119.296-60.928-173.056-43.52-62.464-99.328-98.816-158.208-103.424l68.096-68.096-2.048-4.096 68.608 92.16 17.92-6.144c5.632-2.048 135.168-49.152 190.464-91.648 72.192-55.808 87.040-182.784 87.040-184.32l-1.536-26.112zM126.464 79.36h777.216c-9.216 37.888-28.672 92.672-61.952 118.272-37.888 29.184-121.856 63.488-158.72 77.312l-136.192-182.784-32.768 96.256-37.888-95.744-132.096 182.272c-36.864-14.336-120.832-48.128-158.72-77.312-27.136-21.504-48.128-78.848-58.88-118.272zM491.008 238.080l23.040-46.080 23.040 46.080-23.040 23.040-23.040-23.040zM518.656 811.008c-79.872 0-131.072-24.576-157.184-75.264-23.040-44.544-23.040-101.888-23.040-143.36 0-77.312 75.776-225.792 179.712-225.792v0c103.936 0 180.224 148.48 180.224 225.792 0 41.472 0 98.304-23.040 143.36-25.6 50.688-76.8 75.264-156.672 75.264z" />
<glyph unicode="&#xe909;" glyph-name="拼团" d="M743.424 501.76h-81.408v81.408c5.12 17.92-5.12 35.84-23.040 40.96s-35.84-5.12-40.96-23.040c-1.536-6.144-1.536-12.288 0-18.432v-81.408h-316.416c-17.92-5.12-28.16-23.552-23.040-40.96 3.072-11.264 11.776-19.456 23.040-23.040h256l-246.272-251.392c-14.336-11.264-16.896-32.256-5.632-46.592s32.256-16.896 46.592-5.632c2.048 1.536 4.096 3.584 5.632 5.632l249.856 248.832v-267.264c-0.512-17.408 12.8-32.768 30.72-33.28 1.024 0 1.536 0 2.56 0 17.408-0.512 32.768 12.8 33.28 30.72 0 1.024 0 1.536 0 2.56v316.928h90.112c17.408-0.512 32.768 12.8 33.28 30.72 0 1.024 0 1.536 0 2.56-2.048 17.408-16.384 30.72-34.304 30.72v0zM796.16 723.456h-101.888l-0.512 7.168c-8.192 103.424-99.84 181.248-203.264 172.544-92.672-7.68-165.376-80.384-173.056-173.056l-0.512-7.168h-101.888c-44.544-2.048-52.736-14.336-53.76-69.12l-30.72-603.648c1.024-54.784 17.92-66.56 54.272-69.632h633.344c54.784 0.512 69.12 25.088 69.632 79.872l-22.528 592.384c0 55.296-14.336 69.632-69.12 70.656zM380.416 736.768c14.848 59.904 68.608 101.888 130.048 102.4s114.688-42.496 126.464-102.912l2.048-9.216h-261.12l2.56 9.728zM842.752 67.072c-3.072-23.552-6.144-26.624-29.696-30.208h-603.648c-24.576 0.512-28.672 4.096-29.184 28.672v1.024l30.72 572.928c0.512 24.576 4.608 28.672 29.184 29.184h542.72c24.576-0.512 29.696-5.632 29.696-30.208l30.72-569.856-0.512-1.536z" />
<glyph unicode="&#xe90a;" glyph-name="钱" d="M376.32 702.976h246.784c76.288 0 134.656 165.888 134.656 165.888 0 49.664-5.12 87.040-89.6 89.6-84.992 2.56-104.96-59.392-165.888-59.392-62.464 0-93.696 48.64-170.496 59.392s-89.6-40.448-89.6-89.6c-0.512 0 57.856-165.888 134.144-165.888v0zM636.928 651.776h-260.608c-288.256 0-359.424-566.784-359.424-566.784 0-74.24 60.416-148.992 134.656-148.992h709.632c74.24 0 134.656 74.752 134.656 148.992 0 0-70.656 566.784-358.912 566.784v0zM666.112 216.576c17.408 0 31.232-14.336 31.232-31.232s-14.336-31.232-31.232-31.232h-127.488v-82.432c0-17.408-13.824-31.232-31.232-31.232s-31.232 14.336-31.232 31.232v82.432h-129.024c-17.408 0-31.232 14.336-31.232 31.232s14.336 31.232 31.232 31.232h128.512v39.936h-128.512c-17.408 0-31.232 13.824-31.232 31.232v0c0 17.408 14.336 31.744 31.232 31.744h87.040l-89.088 157.696c-8.704 14.848-3.584 34.304 11.264 43.008s34.304 3.584 43.008-11.264l107.008-189.44h5.632l107.008 189.44c8.704 14.848 28.16 19.968 43.008 11.264v0c14.848-8.704 20.48-28.16 11.776-43.008v0l-89.088-158.208h81.408c17.408 0 31.232-14.336 31.232-31.744s-14.336-31.232-31.232-31.232h-127.488v-39.936l127.488 0.512z" />
<glyph unicode="&#xe90b;" glyph-name="商品" d="M905.216 770.048l-80.896 80.896c-9.728 9.728-23.040 15.36-36.864 15.36h-550.4c-13.824 0-27.136-5.632-36.864-15.36l-80.896-80.896c-14.848-14.848-23.040-34.304-23.040-55.296v-628.224c0-28.672 23.552-52.224 52.224-52.224h727.552c28.672 0 52.224 23.552 52.224 52.224v628.224c0 20.992-8.192 40.448-23.040 55.296zM237.056 814.592h550.4l52.224-52.224h-654.336l51.712 52.224zM148.48 86.528v623.616h727.552v-623.616h-727.552zM694.272 658.432c-43.008 0-77.824-34.816-77.824-77.824 0-31.744 18.944-58.88 45.568-71.168-4.608-12.288-11.264-28.672-22.016-44.544-29.696-44.032-72.704-66.56-127.488-66.56-56.832 0-99.84 22.016-128.512 64.512-10.752 16.384-17.92 33.28-22.016 46.080 27.136 12.288 46.592 39.424 46.592 71.168 0 43.008-34.816 77.824-77.824 77.824s-77.824-34.816-77.824-77.824c0-35.328 24.064-65.536 56.32-74.752 4.608-16.896 13.312-43.008 30.208-69.12 26.624-40.96 78.336-89.6 173.056-89.6 91.648 0 143.36 48.64 171.008 89.6 17.408 26.112 27.136 52.224 32.256 69.12 32.768 9.216 56.832 39.424 56.832 75.264-0.512 43.008-35.328 77.824-78.336 77.824zM330.24 606.208c14.336 0 26.112-11.776 26.112-26.112s-11.776-26.112-26.112-26.112c-14.336 0-26.112 11.776-26.112 26.112s11.776 26.112 26.112 26.112zM694.272 554.496c-14.336 0-26.112 11.776-26.112 26.112s11.776 26.112 26.112 26.112c14.336 0 26.112-11.776 26.112-26.112s-11.776-26.112-26.112-26.112z" />
<glyph unicode="&#xe90c;" glyph-name="设置" d="M930.304 339.456l-72.704 42.496 0.512 3.584c4.096 23.552 6.144 44.544 6.144 64.512s-2.048 40.96-6.144 64.512l-0.512 3.584 72.704 42.496c26.112 15.36 34.816 48.64 19.968 74.752l-59.392 103.424c-7.168 12.8-18.944 22.016-33.28 25.6-13.824 3.584-28.672 1.536-40.96-5.632l-73.216-43.008-2.56 2.56c-34.304 29.184-71.168 51.2-110.080 65.024l-3.584 1.024v54.784c0 30.208-24.576 54.784-54.272 54.784h-118.784c-29.696 0-54.272-24.576-54.272-54.784v-54.272l-3.584-1.024c-38.912-13.824-75.776-35.84-110.080-65.024l-2.56-2.56-73.216 43.008c-12.288 7.168-27.136 9.216-40.96 5.632s-25.6-12.8-33.28-25.6l-59.392-103.936c-14.848-26.112-6.144-59.904 19.968-74.752l72.704-42.496-0.512-3.584c-4.096-23.552-6.144-44.544-6.144-64.512s2.048-40.96 6.144-64.512l0.512-3.584-72.704-42.496c-26.112-15.36-34.816-48.64-19.968-74.752l59.392-103.936c7.168-12.8 18.944-22.016 33.28-25.6 13.824-3.584 28.672-1.536 40.96 5.632l73.216 43.008 2.56-2.56c34.304-29.184 71.168-51.2 110.080-65.024l3.584-1.024v-54.272c0-30.208 24.576-54.784 54.272-54.784h118.784c29.696 0 54.272 24.576 54.272 54.784v54.272l3.584 1.024c38.912 13.824 75.776 35.84 110.080 65.024l2.56 2.56 73.216-43.008c12.288-7.168 27.136-9.216 40.96-5.632s25.6 12.8 33.28 25.6l59.392 103.936c14.848 25.6 6.144 59.392-19.968 74.752zM892.928 263.168l-29.696-51.712c-4.608-8.192-12.288-13.824-20.992-16.384-9.216-2.56-18.432-1.024-26.624 3.584l-78.848 46.080c-41.984-46.592-98.304-79.36-158.72-92.672v-61.952c0-19.456-15.872-35.328-34.816-35.328h-59.392c-19.456 0-34.816 15.872-34.816 35.328v61.952c-60.416 13.312-116.736 46.080-158.72 92.672l-78.848-46.080c-8.192-4.608-17.408-6.144-26.624-3.584s-16.384 8.192-20.992 16.384l-29.696 51.712c-9.728 16.896-4.096 38.4 12.8 48.128l79.36 46.080c-9.728 30.72-14.848 61.952-14.848 92.16s5.12 61.44 14.848 92.16l-79.36 46.080c-16.384 9.728-22.528 31.232-12.8 48.128l29.696 51.712c4.608 8.192 12.288 13.824 20.992 16.384 9.216 2.56 18.432 1.024 26.624-3.584l78.848-46.080c41.984 46.592 98.304 79.36 158.72 92.672v61.952c0 19.456 15.872 35.328 34.816 35.328h59.392c19.456 0 34.816-15.872 34.816-35.328v-61.952c60.416-13.312 116.736-46.080 158.72-92.672l78.848 46.080c8.192 4.608 17.408 6.144 26.624 3.584s16.384-8.192 20.992-16.384l29.696-51.712c9.728-16.896 4.096-38.4-12.8-48.128l-79.36-46.080c9.728-30.72 14.848-61.952 14.848-92.16s-5.12-61.44-14.848-92.16l79.36-46.080c16.384-9.728 22.016-31.232 12.8-48.128zM513.024 594.432c-79.36 0-143.36-65.024-143.36-144.896s64.512-144.896 143.36-144.896 143.36 65.024 143.36 144.896-64 144.896-143.36 144.896zM513.024 354.816c-52.224 0-94.208 42.496-94.208 95.232 0 52.224 42.496 95.232 94.208 95.232s94.208-42.496 94.208-95.232-41.984-95.232-94.208-95.232z" />
<glyph unicode="&#xe90d;" glyph-name="收入" d="M537.6 882.688c-245.248 0-444.928-199.68-444.928-444.928s199.68-444.928 444.928-444.928 444.928 199.68 444.928 444.928-199.68 444.928-444.928 444.928zM537.6 20.48c-229.888 0-417.28 187.392-417.28 417.28s187.392 417.28 417.28 417.28 417.28-187.392 417.28-417.28-187.392-417.28-417.28-417.28zM455.168 379.392c8.704 22.016 22.528 41.984 40.448 59.392-117.248 4.096-208.896 35.328-208.896 83.456v-52.736c0.512-43.008 71.68-78.336 168.448-90.112zM522.752 689.152c-130.048 0-235.52-41.984-235.52-94.208v-31.232c0-52.224 105.472-94.208 235.52-94.208 5.12 0 9.728 0.512 14.848 0.512 34.816 19.456 77.312 30.72 122.88 30.72 10.752 0 21.504-1.024 31.744-2.56 40.96 16.896 66.56 39.936 66.56 65.536v31.232c0 51.712-105.984 94.208-236.032 94.208zM467.456 251.392c-103.424 7.68-180.224 37.888-180.224 81.92v-53.248c0-52.224 105.472-94.208 235.52-94.208 4.608 0 8.704 0.512 12.8 0.512-28.672 17.408-52.224 39.424-68.096 65.024zM451.584 285.696c-4.096 13.824-7.168 27.648-7.168 42.496 0 6.656 1.536 13.312 2.56 19.968-92.672 10.24-159.744 38.912-159.744 79.872v-52.736c0-42.496 69.12-77.312 164.352-89.6zM669.184 440.832h-44.544v-89.088h-89.088v-44.544h89.088v-89.088h44.544v89.088h89.088v44.544h-89.088z" />
<glyph unicode="&#xe90e;" glyph-name="数据" d="M824.832 122.368h78.336c14.336 0 26.112-12.288 26.112-27.136s-11.776-27.136-26.112-27.136h-782.336c-14.336 0-26.112 11.776-26.112 27.136v0 706.56c0 14.848 11.776 27.136 26.112 27.136s26.112-12.288 26.112-27.136v-679.424h156.16v190.464c0 14.848 11.776 27.136 26.112 27.136s26.112-12.288 26.112-27.136v0-190.464h104.448v299.008c0 14.848 11.776 27.136 26.112 27.136s26.112-12.288 26.112-27.136v0-299.008h104.448v190.464c0 14.848 11.776 27.136 26.112 27.136s26.112-12.288 26.112-27.136v0-190.464h104.448v353.28c0 14.848 11.776 27.136 26.112 27.136s26.112-12.288 26.112-27.136l-0.512-353.28zM877.056 723.456l-197.632-205.824c-5.12-12.8-18.944-19.968-32.256-15.36-7.168 1.536-13.824 6.656-17.408 13.824l-138.752 144.896-184.32-192.512c-9.728-11.264-26.112-11.776-36.864-1.536s-11.264 27.136-1.536 38.4c0.512 0.512 1.024 1.024 1.536 1.536l193.024 201.216c5.12 5.632 12.288 8.192 19.456 7.68 10.24 7.168 24.064 5.632 32.768-3.584l138.752-144.896 198.144 206.848h-53.248c-14.336 0-26.112 12.288-26.112 27.136s11.776 27.136 26.112 27.136h104.448c12.8 0 24.064-9.728 25.6-23.040 4.096-8.192 4.608-17.92 0.512-26.112v-86.528c0-14.848-11.776-27.136-26.112-27.136s-26.112 12.288-26.112 27.136v30.72z" />
<glyph unicode="&#xe90f;" glyph-name="淘宝认证" d="M510.464 587.264l26.624-24.576-13.312-14.336h173.056l0.512-40.448-108.032-0.512v-52.224l106.496-1.536v-26.112h-105.984l-0.512-93.696c35.84-1.024 47.616 13.824 47.616 13.824l-12.288 24.576 64.512 37.376 34.304-75.776v228.864c-40.96 104.448-212.992 24.576-212.992 24.576v0zM529.92 897.536c-248.32 0-450.048-201.728-450.048-450.048s201.728-450.048 450.048-450.048 450.048 201.728 450.048 450.048-201.728 450.048-450.048 450.048zM305.152 684.032c29.696 0 53.76-24.064 53.76-53.76s-24.064-53.76-53.76-53.76-53.76 24.064-53.76 53.76 24.064 53.76 53.76 53.76zM359.936 384.512l-78.336-161.28-83.968 53.76 110.592 120.832c15.872 19.968 0 44.544 0 44.544l-81.408 70.656 35.84 49.152c0 0 38.912-30.208 81.92-72.704 43.52-42.496 15.36-104.96 15.36-104.96v0zM821.76 303.616c0 0-6.656-95.232-99.328-92.672-92.672 2.048-92.672 0-92.672 0h-26.624c0 0-15.872 22.016 0.512 54.272 0 0 34.304 5.632 39.424-13.312h38.912c0 0 37.888 7.168 40.96 67.072l-53.76-40.448-19.456 39.936c0 0-71.168-56.832-129.024-53.248h-78.848c0 0-51.2 13.312-54.272 80.896v52.736h80.384c0 0-8.192-82.944 38.912-78.848l1.024 105.984h-120.832v27.136h120.832l-0.512 53.248-17.408 0.512-49.152-48.64-32.256 29.184 60.928 60.416-1.536 27.648-76.8-70.656-46.592 46.592c0 0 61.44 39.936 81.408 133.12l68.608-17.408-11.264-36.352c0 0 299.52 109.568 337.408-81.408l1.024-245.76z" />
<glyph unicode="&#xe910;" glyph-name="微信认证" d="M570.368 442.88c-10.24 0-20.48-9.728-20.48-21.504 0-9.728 10.24-18.944 20.48-18.944 15.36 0 26.624 9.728 26.624 18.944 0 11.776-11.264 21.504-26.624 21.504zM503.296 541.696c16.384 0 26.624 10.24 26.624 25.6 0 16.384-10.24 25.6-26.624 25.6-15.36 0-30.208-9.728-30.208-25.6 0-15.36 14.336-25.6 30.208-25.6zM510.976 892.416c-248.32 0-450.048-201.216-450.048-450.048 0-248.32 201.216-450.048 450.048-450.048 248.32 0 450.048 201.216 450.048 450.048 0 248.32-201.216 450.048-450.048 450.048zM425.984 328.192c-27.136 0-47.104 4.608-72.704 11.776l-74.24-37.376 21.504 62.976c-52.224 36.864-82.944 82.944-82.944 139.264 0 99.84 93.696 176.128 208.384 176.128 101.376 0 191.488-59.904 208.896-145.408-7.168 1.536-13.824 2.048-19.968 2.048-99.84 0-176.64-74.752-176.64-164.864 0-15.36 2.048-29.184 5.632-44.032-5.12-0.512-11.776-0.512-17.92-0.512v0zM731.648 256.512l14.848-52.736-55.808 31.744c-21.504-4.608-41.984-10.752-62.976-10.752-98.304 0-176.128 67.584-176.128 151.040s77.824 151.040 176.128 151.040c93.184 0 176.64-67.584 176.64-151.040 0-47.616-31.744-89.088-72.704-119.296v0zM357.888 592.896c-15.36 0-31.744-9.728-31.744-25.6 0-15.36 16.384-25.6 31.744-25.6 14.848 0 26.624 10.24 26.624 25.6 0 16.384-11.776 25.6-26.624 25.6zM685.568 442.88c-10.752 0-20.48-9.728-20.48-21.504 0-9.728 9.728-18.944 20.48-18.944 14.848 0 25.6 9.728 25.6 18.944 0 11.776-10.752 21.504-25.6 21.504z" />
<glyph unicode="&#xe911;" glyph-name="隐藏" d="M944.1 497.1c-0.2 0.1-0.4 0.2-0.5 0.4-3.7 2.8-17 12.8-34.4 24.8-1.6 1.1-2 2.7-2 3.5-0.1 0.8 0 2.3 1.4 3.7 13.5 13 26.6 26.6 39 40.6 0.6 0.6 1 1.2 1.5 1.8 12.5 16.6 13 39.2 1.2 56.3-2 2.9-4.4 5.4-7.2 7.3-5.4 3.8-11.7 5.2-18 4.2-12-1.9-20.8-12.1-26.4-19.7-46.3-58.6-205.3-210.2-385.6-210.3-48 0.5-95.1 8.9-140.1 25l-39.7 16.1c-37.8 17.1-74 38-107.5 62.2l-28.1 21.1c-25.5 19.6-49.1 41.8-70 66-0.7 0.8-1.4 1.6-2.2 2.3l-1.8 1.7c-6.2 5.8-11.5 10.8-17.8 13.5-5.3 2.3-15.8 4.6-26.6-5-19-17-14.2-41.3-3.3-58.4 1.1-1.7 2.4-3.3 3.8-4.8 15.9-16 32.7-31.5 50.1-46 1.5-1.3 1.7-2.9 1.7-3.7s-0.3-2.4-2-3.6c-12.7-9-22.1-15.9-24.7-17.8-0.1 0-0.2-0.1-0.7-0.4-7.8-4.5-13.3-11.7-15.5-20.2-2.4-8.9-0.8-18.4 4.3-26.1 9.5-15.5 29.7-20.8 46-12.1 5.6 3 11.8 7.6 20.5 14 7.4 5.5 16.6 12.3 28.2 20.1 1.7 1.2 4 1.1 5.8-0.1 28.8-19.9 59.4-37.9 90.8-53.6 1.6-0.8 2.3-2.2 2.5-2.9s0.5-2.1-0.4-3.6l-28.7-48.3c-4.6-7.6-5.8-16.6-3.5-25.1 2.3-8.6 7.9-15.8 15.9-20.3l0.2-0.1c16.2-8.9 37-3.5 46.5 12l32.9 56.2c1.2 2.1 3.8 2.9 6.1 2.1 38.2-14 78.1-23.2 118.7-27.4 2.6-0.3 4.5-2.3 4.5-4.7v-48.8c0-18.3 15.4-33.3 34.3-33.3s34.3 14.9 34.3 33.3v49.6c0 2.4 1.9 4.4 4.5 4.7 40.1 4.2 79.5 13.7 117 28.2 2.3 0.9 5 0 6.2-2l34.2-58.5 0.1-0.1c9.5-15.7 29.7-21.1 46.1-12.4l0.3 0.2c7.9 4.5 13.5 11.7 15.8 20.3 2.3 8.5 1.1 17.4-3.5 25l-31.3 53.6c-1.3 2.2-0.5 5.1 1.9 6.4 38.7 21.1 75.7 45.8 110 73.3 1.7 1.4 4.2 1.5 6 0.3 25.1-16.5 45.5-31.2 51.1-35.4 1.9-1.4 3.8-2.5 5.8-3.3 15.9-6.7 34.5-0.9 43.3 13.6 9.2 15.3 4.4 34.9-11 44.6z" />
<glyph unicode="&#xe912;" glyph-name="营销" d="M674.816 71.68v0c-50.176-27.136-107.008-40.96-164.352-40.96-69.632 0-136.704 20.48-194.048 59.392 20.992 28.672 32.256 63.488 32.256 98.816 0 92.672-75.264 167.936-167.936 167.936s-167.936-75.264-167.936-167.936 75.264-167.936 167.936-167.936c34.816 0 68.096 10.752 96.256 30.72 68.608-49.152 148.992-74.752 233.472-74.752 66.56 0 132.096 16.384 189.952 47.616l10.752 5.632-25.6 47.616-10.752-6.144zM294.4 188.928c0-62.976-51.2-113.664-113.664-113.664s-113.664 51.2-113.664 113.664c0 62.976 51.2 113.664 113.664 113.664s113.664-51.2 113.664-113.664zM161.792 379.392c0 133.632 73.728 252.928 193.024 311.808 26.112-63.488 86.528-104.448 155.648-104.448 92.672 0 167.936 75.264 167.936 167.936s-75.264 167.936-167.936 167.936-167.936-75.264-167.936-167.936c0-3.072 0-6.144 0.512-9.728-142.848-65.536-235.008-208.896-235.008-366.080v-12.288h54.272l-0.512 12.8zM396.288 754.688c0 62.976 51.2 113.664 113.664 113.664 62.976 0 113.664-51.2 113.664-113.664 0-62.976-51.2-113.664-113.664-113.664s-113.664 51.2-113.664 113.664zM910.848 340.992c1.536 13.824 2.048 26.112 2.048 38.4 0 141.824-72.192 270.336-193.536 344.064l-10.752 6.656-28.16-46.080 10.752-6.656c104.96-64 167.424-175.104 167.424-297.984 0-7.168-0.512-14.848-1.024-23.552-6.144 0.512-11.776 1.024-17.92 1.024-92.672 0-167.936-75.264-167.936-167.936s75.264-167.936 167.936-167.936 167.936 75.264 167.936 167.936c0.512 65.024-37.376 124.416-96.768 152.064zM953.856 188.928c0-62.976-51.2-113.664-113.664-113.664-62.976 0-113.664 51.2-113.664 113.664 0 62.976 51.2 113.664 113.664 113.664s113.664-51.2 113.664-113.664zM510.464 543.232c-92.672 0-167.936-75.264-167.936-167.936s75.264-167.936 167.936-167.936 167.936 75.264 167.936 167.936-75.264 167.936-167.936 167.936zM510.464 488.96c62.976 0 113.664-51.2 113.664-113.664s-51.2-113.664-113.664-113.664c-62.976 0-113.664 51.2-113.664 113.664s50.688 113.664 113.664 113.664z" />
<glyph unicode="&#xe913;" glyph-name="账户" d="M963.584 841.728h-898.56c-16.384 0-29.184-13.312-29.184-29.184v-726.528c0-16.384 13.312-29.184 29.184-29.184h898.56c16.384 0 29.184 13.312 29.184 29.184v726.016c0 16.384-13.312 29.696-29.184 29.696zM938.496 787.456v-676.352h-848.384v676.352h848.384zM642.56 420.352h187.904c14.848 0 27.136 12.288 27.136 27.136s-12.288 27.136-27.136 27.136h-187.904c-14.848 0-27.136-12.288-27.136-27.136s12.288-27.136 27.136-27.136zM642.56 233.984h187.904c14.848 0 27.136 12.288 27.136 27.136s-12.288 27.136-27.136 27.136h-187.904c-14.848 0-27.136-12.288-27.136-27.136s12.288-27.136 27.136-27.136zM642.56 610.304h124.928c14.848 0 27.136 12.288 27.136 27.136s-12.288 27.136-27.136 27.136h-124.928c-14.848 0-27.136-12.288-27.136-27.136s12.288-27.136 27.136-27.136zM178.688 205.824c14.848 0 27.136 12.288 27.136 27.136 0 76.8 56.832 144.384 132.608 158.208 4.608-1.024 9.216-1.536 13.824-2.048 9.728-1.024 18.944-1.024 28.672 0 4.608 0.512 9.216 1.024 13.824 2.048 75.776-13.312 132.608-80.896 132.608-158.208 0-14.848 12.288-27.136 27.136-27.136s27.136 12.288 27.136 27.136c0 52.224-18.944 102.4-52.736 141.312-17.92 20.992-39.936 37.376-64 50.176 33.28 28.16 54.272 69.632 54.272 116.736 0 83.968-68.096 152.064-152.064 152.064s-152.064-68.096-152.064-152.064c0-46.592 20.992-88.576 54.272-116.736-24.064-12.288-46.080-29.184-64-49.664-34.304-38.912-52.736-89.088-52.736-141.312-1.024-15.872 11.264-27.648 26.112-27.648zM360.96 442.368c-5.12 0.512-10.24 1.024-15.872 2.048-0.512 0-1.024 0-1.536 0-43.52 10.24-75.776 49.152-75.776 95.232 0 54.272 44.032 98.304 98.304 98.304s98.304-44.032 98.304-98.304c0-46.592-32.256-85.504-75.776-95.232-0.512 0-0.512 0-1.024 0-7.68-1.536-14.848-2.56-20.992-2.56-1.536 0-3.072 0-5.632 0.512 0.512 0 0 0 0 0z" />
</font>
</defs>
</svg>
