<?xml version="1.0" encoding="utf-8"?>
<!-- Generator: Adobe Illustrator 21.0.0, SVG Export Plug-In . SVG Version: 6.00 Build 0)  -->
<svg version="1.1" id="图层_1" xmlns="http://www.w3.org/2000/svg" xmlns:xlink="http://www.w3.org/1999/xlink" x="0px" y="0px"
	 viewBox="0 0 1366 768" style="enable-background:new 0 0 1366 768;" xml:space="preserve">
<style type="text/css">
	.st0{fill:#FFC716;}
	.st1{fill:#37464F;}
	.st2{fill:#FFFFFF;}
	.st3{fill:#FF3A2F;}
	.st4{fill:#DD2C00;}
</style>
<g>
	<path class="st0" d="M678.2,716c0,38.9-56.9,70.4-127,70.4S424.4,754.8,424.4,716s56.9-70.4,127-70.4
		C621.4,645.6,678.3,677.2,678.2,716L678.2,716z M815.3,645.6c-70.1,0-127,31.6-127,70.4c0,38.9,56.9,70.4,127,70.4
		c70.1,0,126.9-31.5,126.9-70.4C942.2,677.2,885.3,645.6,815.3,645.6L815.3,645.6z M815.3,645.6"/>
	<path class="st1" d="M963.6,378.2c0,0-9.6-9.6-19.8-19.1V246.6c1.7-94.2-47.6-181.9-128.9-229.4c-81.3-47.6-181.9-47.6-263.2,0
		c-81.3,47.6-130.6,135.3-128.9,229.4v112.4c-10.4,9.6-20,19.1-20,19.1c-16.9,25.8-57.3,91.6-57.3,153.8s17,72.8,23.5,73.2
		c6.4,0.5,27.8-5.5,53.8-45.5c35.5,117.1,138.7,201.9,260.6,201.9c121.9,0,225.4-84.8,260.5-201.9c26.2,40.2,48.2,46.3,54.2,45.7
		c6-0.6,23.4-11.2,23.4-73.2s-40.2-128-57.3-153.5L963.6,378.2z M963.6,378.2"/>
	<path class="st2" d="M491.9,423.1c-2,15.1-2.9,30.4-2.8,45.6c0,142.2,88.3,258,197.9,258s198-115.3,198-258c0-15.3-1-30.5-3-45.6
		H491.9z M615,106c-28.6,0-52.5,32.1-52.5,71.2c0,39.1,23.6,71.3,52.5,71.3c28.9,0,52.6-32.1,52.6-71.3C667.6,138,644.1,106,615,106
		L615,106z M623.8,206.2c-10.6,0-19.1-13.1-19.1-29.2c0-16.1,8.6-29.2,19.1-29.2c10.5,0,19.1,13.1,19.1,29.2
		C642.9,193.1,634.3,206.2,623.8,206.2L623.8,206.2z M753.6,106c-28.6,0-52.5,32.1-52.5,71.2c0,39.1,23.5,71.3,52.5,71.3
		s52.6-32.1,52.6-71.3C806.2,138,782.7,106,753.6,106L753.6,106z M762.8,180c0,0.8-0.7,1.4-1.4,1.4c-0.6,0-1.2-0.4-1.3-1
		c-2.1-7.5-8.4-12.9-16.1-13.9c-7.7,1-14.1,6.6-16.1,14.1c-0.2,0.5-0.7,0.8-1.2,0.8c-0.8,0-1.4-0.6-1.4-1.4v-2.4
		c0-16.1,8.6-29.2,19.1-29.2c10.5,0,19.1,13.1,19.1,29.2v2.5L762.8,180z M762.8,180"/>
	<path class="st3" d="M477.3,408.7c-4.7,24.1-14.9,131.2-10.1,155.1c4.7,23.9,24.8,19.8,53.7,20.2c28.9,0.3,60.6,8,61-27.1
		c0.5-35.2,0.6-104.4,8.5-129.6C598.4,402,477.3,408.7,477.3,408.7L477.3,408.7z M477.3,408.7"/>
	<path class="st4" d="M471,459.9l112.4,36.3c0-23.2,2.5-46.3,7.4-68.9c8-25.5-113.2-18.6-113.2-18.6c-1.7,8.8-4.2,28.7-6.3,51.2H471
		z M471,459.9"/>
	<path class="st0" d="M684,347.6c87.5,0,158.5-32.1,158.5-51.5c0-14.9-70.9-30.3-158.3-30.3S526,279.7,526,295.8
		c0,18.6,70.8,51.5,158.3,51.5L684,347.6z M684,347.6"/>
	<path class="st3" d="M685.6,366.8c0,0,100.5,1,180.6-32.9c80.2-34,79.3-38.1,88.1-38.1s19.1,12.6,23.5,35.3
		c4.4,22.7,9.6,40.7-9.6,51.9c-19.1,11.2-141.3,83-279.6,83h-6.9c-138.2,0-260.9-72.3-279.7-83.2c-18.8-10.9-13.6-28.7-9.6-51.9
		c4-23.2,14.8-35.2,23.5-35.2c8.8,0,8,3.9,88.3,38.2s180.5,32.9,180.5,32.9L685.6,366.8z M685.6,366.8"/>
</g>
</svg>
